PathFileType	4	(X/Y/Z)	AB08\squats_1.trc
DataRate	CameraRate	NumFrames	NumMarkers	Units	OrigDataRate	OrigDataStartFrame	OrigNumFrames
200.000000	200.000000	4	35	mm	200.000000	237	317
Frame#	Time	C7			LSHO			STRN			LASI			RASI			RPSI			LGTR			RGTR			LTHC			LTHL			LTHR			LKNE			LMKNE			LSHC			LSHL			LSHR			LANK			LMANK			LMT1			LMT5			LCAL			RTHC			RTHL			RTHR			RKNE			RMKNE			RSHC			RSHL			RSHR			RANK			RMANK			RMT1			RMT5			RCAL			LPSI			
		X1	Y1	Z1	X2	Y2	Z2	X3	Y3	Z3	X4	Y4	Z4	X5	Y5	Z5	X6	Y6	Z6	X7	Y7	Z7	X8	Y8	Z8	X9	Y9	Z9	X10	Y10	Z10	X11	Y11	Z11	X12	Y12	Z12	X13	Y13	Z13	X14	Y14	Z14	X15	Y15	Z15	X16	Y16	Z16	X17	Y17	Z17	X18	Y18	Z18	X19	Y19	Z19	X20	Y20	Z20	X21	Y21	Z21	X22	Y22	Z22	X23	Y23	Z23	X24	Y24	Z24	X25	Y25	Z25	X26	Y26	Z26	X27	Y27	Z27	X28	Y28	Z28	X29	Y29	Z29	X30	Y30	Z30	X31	Y31	Z31	X32	Y32	Z32	X33	Y33	Z33	X34	Y34	Z34	X35	Y35	Z35	

238	31.465	-3530.191510319243	1215.936591551453	2536.620184034727	-3617.635948038597	1142.15293139031	2679.045933033709	-3585.265788262301	885.3212438724213	2544.195657654296	-3387.660503542413	740.6957087042609	2632.111154078391	-3392.79608280208	755.6123189272068	2404.134233948252	-3180.813214956825	824.3035576238879	2457.109954389505	-3263.639819491469	766.3208379533951	2726.255482197908	-3323.004355393867	743.1384000081189	2314.766646616858	-3472.596869593249	665.9522362700375	2720.791462686861	-3358.576209807619	515.4270619976354	2732.548753722205	-3483.639497943919	516.4867790565028	2782.117387377983	-3521.764772502748	436.9874584944678	2783.210629767358	-3572.078966434791	399.1066412809045	2683.402100259568	-3438.436621392685	399.3649397840979	2732.80163786688	-3530.134653200355	306.0838601709054	2693.847168130271	-3414.877542460212	234.5268074469309	2785.830322338204	-3354.506003030876	95.85814950901816	2760.452197308368	-3397.57165025757	103.8823971386974	2670.863684233059	-3507.852463818443	53.32410019831066	2716.752169288136	-3468.155685595794	49.48365380726776	2812.61242295591	-3295.224567467797	84.24310222974371	2693.300511484766	-3475.23883534056	544.9169839219466	2289.688674784192	-3344.063500826192	509.1480955958344	2339.828299176916	-3500.89983248891	635.6838517687597	2430.997640147653	-3584.915166331743	437.7992123667096	2295.29156644865	-3588.341688185327	405.6342434053147	2410.659713543378	-3444.919137024036	248.3898661364539	2263.490438893388	-3437.272592502588	361.4576417378899	2333.1079833988	-3572.372685122197	290.4762456478445	2337.013560404737	-3375.189878071502	103.982897394108	2269.349807409722	-3419.592151785701	103.3027312101669	2360.851321977118	-3532.894383302897	56.91903124700212	2304.534269559316	-3481.443912859591	54.44681366965203	2223.416988611571	-3305.737781004447	89.76647042051944	2329.713852873706	-3172.679092132367	829.4960487235157	2567.835693589881	
239	31.47	-3528.905535317825	1221.070660449879	2536.551609914093	-3616.536890636322	1147.622413094514	2679.08397797645	-3585.314284748736	890.7357388068743	2544.116002825284	-3388.321604835173	743.3419641745559	2631.91568708612	-3393.397724081164	758.4267534894452	2404.168314220671	-3181.492190929611	827.8229393713935	2457.375142991436	-3264.540779851065	769.0833402863769	2726.301653655279	-3323.630106902595	746.2296517500725	2314.906526120046	-3473.462211554368	667.3895589345918	2721.183937375046	-3358.490625136459	517.5237354766269	2732.279285610387	-3483.408376140688	517.481481849331	2781.825506730647	-3521.094766109403	437.4831777737151	2782.885156076141	-3571.325467000745	399.5479472074466	2683.120285489589	-3437.736922554604	399.6197478179972	2732.632422912226	-3529.579353512941	306.411283882055	2693.679096200909	-3414.568340910771	234.6482082924892	2785.798875553288	-3354.405797793432	95.81510082590243	2760.533349503209	-3397.469902792232	103.8923346894524	2670.925250562106	-3507.817079109996	53.32972644427451	2716.755111525745	-3468.151731361199	49.47659059591138	2812.636159424752	-3295.161296016533	84.20724381604086	2693.390368154866	-3474.98788431865	546.5258919981522	2289.636638861297	-3343.849127471287	511.7926058907418	2340.060532946273	-3501.606462904921	637.4992152524889	2430.66432805818	-3583.955870138247	438.4916233212207	2295.255878931188	-3587.40206763593	406.3099140011729	2410.657498651949	-3444.434007953008	248.5473804320743	2263.303353559166	-3436.422234999502	361.6643341424788	2332.88776523347	-3571.669646163324	291.0359983124332	2336.927586586297	-3375.022495194276	103.9210093651486	2269.227018091397	-3419.456037075704	103.4143101075422	2360.743086557643	-3532.861315399824	56.97179272602784	2304.517208975588	-3481.444997827555	54.41857164077506	2223.392178699088	-3305.606782605166	89.70412370287879	2329.561002464971	-3173.412459254138	832.884011526778	2568.142828641818	
240	31.475	-3527.595644360347	1226.247020700316	2536.482417707809	-3615.427074864348	1153.144112556199	2679.119613220587	-3585.406374121143	896.1954434302513	2544.039549350914	-3389.007949120377	746.004438488173	2631.711535645737	-3394.024177927778	761.2491330369864	2404.201997124367	-3182.195257138363	831.3561104062768	2457.638909566292	-3265.464012459182	771.857793902405	2726.335998329726	-3324.28562264242	749.3335489903819	2315.054108408708	-3474.325663002564	668.8356812899036	2721.577431663567	-3358.403741133907	519.6413644382375	2732.009624519964	-3483.162590587729	518.4921062767867	2781.535616791569	-3520.405453813426	437.9902086278807	2782.564401982496	-3570.560750759002	400.003774704752	2682.845010684854	-3437.02011036522	399.8808759224306	2732.46432139847	-3529.015239753812	306.751617838895	2693.516100756924	-3414.249229454171	234.7761723710296	2785.762148126397	-3354.309130471304	95.77463322152609	2760.611209793118	-3397.37028756805	103.9049689125257	2670.985152517865	-3507.784685791595	53.33716248982365	2716.75761606105	-3468.147537701314	49.46887580252138	2812.656997502683	-3295.100394396321	84.1738769209896	2693.47698319486	-3474.730940674933	548.1579929866567	2289.567683608003	-3343.636802103208	514.4596656604587	2340.283847499555	-3502.322482516089	639.3214407890766	2430.309652471236	-3582.977946143329	439.1993721842032	2295.199545524075	-3586.464069722399	406.9950076808884	2410.644172020123	-3443.939245162485	248.7091392694497	2263.106250398567	-3435.559806231885	361.8766009176079	2332.65666054399	-3570.957195833634	291.6101617572037	2336.825581693466	-3374.855667021117	103.8581980902075	2269.108417885705	-3419.319431955716	103.5297655539949	2360.633881267163	-3532.828783273922	57.02190708210082	2304.499304208794	-3481.44622897964	54.38810828360247	2223.365720693781	-3305.478959132331	89.64617517629141	2329.411641110471	-3174.170654443256	836.2845568902585	2568.446435416815	
241	31.48	-3526.260608090263	1231.463214229488	2536.413291762182	-3614.305482365727	1158.716574148458	2679.153221776779	-3585.540026660567	901.6986064167623	2543.967100019029	-3389.721627922655	748.6868646171208	2631.49988588937	-3394.676120192588	764.0783208533835	2404.235679209379	-3182.923025840269	834.9014373179555	2457.900625936236	-3266.409755288614	774.6443595141446	2726.358288385109	-3324.971378280973	752.4488744731664	2315.209999727764	-3475.187174035544	670.2898129461506	2721.970165984745	-3358.31580425807	521.7791931654904	2731.739180674795	-3482.9028308526	519.5181925316125	2781.246118320819	-3519.697157040569	438.5085236896982	2782.246995332164	-3569.7852770115	400.4739166639492	2682.574191246064	-3436.286452429984	400.1483566454543	2732.295983720292	-3528.442310154004	307.1044996267868	2693.356914611878	-3413.920169158791	234.9109024656827	2785.719597405994	-3354.216276471027	95.73668801216377	2760.68577464929	-3397.27272176892	103.9201900106485	2671.04322176097	-3507.755239884699	53.34622825392967	2716.759569907152	-3468.14317886497	49.46044162551095	2812.675049421076	-3295.041274233425	84.14260190441686	2693.560584379312	-3474.468984807287	549.8133367886051	2289.482573350098	-3343.427152104859	517.1487373025759	2340.498072817912	-3503.04742267605	641.1494146027355	2429.935335965843	-3581.981138008174	439.9218507165082	2295.123482256599	-3585.526052661733	407.6903602234435	2410.619375899892	-3443.434905650352	248.8753114639914	2262.899936885475	-3434.685364583884	362.0944570997323	2332.415928491526	-3570.235310526969	292.1985136227572	2336.708406040376	-3374.690041131255	103.7945449173169	2268.993412166805	-3419.181793179191	103.6483198499892	2360.523506677508	-3532.797042794152	57.06910331273269	2304.480621552761	-3481.447488326819	54.35557441530896	2223.337286327679	-3305.354889740694	89.59263657023588	2329.266196376345	-3174.954200297022	839.6961817434733	2568.745835712043	
